<?xml version="1.0" encoding="UTF-8" standalone="no"?>
<!-- Created with Inkscape (http://www.inkscape.org/) -->

<svg
   width="32"
   height="32"
   viewBox="0 0 32 32"
   version="1.1"
   id="svg1"
   inkscape:version="1.3 (0e150ed6c4, 2023-07-21)"
   sodipodi:docname="temp_named_file_raw.svg"
   inkscape:export-filename="temp_named_file_raw.png"
   inkscape:export-xdpi="96"
   inkscape:export-ydpi="96"
   xmlns:inkscape="http://www.inkscape.org/namespaces/inkscape"
   xmlns:sodipodi="http://sodipodi.sourceforge.net/DTD/sodipodi-0.dtd"
   xmlns="http://www.w3.org/2000/svg"
   xmlns:svg="http://www.w3.org/2000/svg">
  <sodipodi:namedview
     id="namedview1"
     pagecolor="#505050"
     bordercolor="#ffffff"
     borderopacity="1"
     inkscape:showpageshadow="0"
     inkscape:pageopacity="0"
     inkscape:pagecheckerboard="1"
     inkscape:deskcolor="#505050"
     inkscape:document-units="px"
     showgrid="true"
     inkscape:zoom="16"
     inkscape:cx="16.6875"
     inkscape:cy="16.59375"
     inkscape:window-width="1920"
     inkscape:window-height="974"
     inkscape:window-x="-11"
     inkscape:window-y="-11"
     inkscape:window-maximized="1"
     inkscape:current-layer="layer1">
    <inkscape:grid
       id="grid2"
       units="px"
       originx="0"
       originy="0"
       spacingx="1"
       spacingy="1"
       empcolor="#0099e5"
       empopacity="0.30196078"
       color="#0099e5"
       opacity="0.14901961"
       empspacing="6"
       dotted="false"
       gridanglex="30"
       gridanglez="30"
       visible="true" />
  </sodipodi:namedview>
  <defs
     id="defs1">
    <inkscape:path-effect
       effect="fillet_chamfer"
       id="path-effect4"
       is_visible="true"
       lpeversion="1"
       nodesatellites_param="F,0,0,1,0,0,0,1 @ F,0,0,1,0,4.9400388,0,1 @ F,0,0,1,0,4.9887378,0,1 @ F,0,0,1,0,5.0028957,0,1 @ F,0,0,1,0,5.0008214,0,1 @ F,0,0,1,0,0,0,1"
       radius="0"
       unit="px"
       method="auto"
       mode="F"
       chamfer_steps="1"
       flexible="false"
       use_knot_distance="true"
       apply_no_radius="true"
       apply_with_radius="true"
       only_selected="false"
       hide_knots="false" />
    <inkscape:path-effect
       effect="fillet_chamfer"
       id="path-effect3"
       is_visible="true"
       lpeversion="1"
       nodesatellites_param="F,0,0,1,0,5.9643322,0,1 @ F,0,0,1,0,5.9643322,0,1 @ F,0,0,1,0,5.0116935,0,1 @ F,0,0,1,0,1.0040595,0,1 @ F,0,0,1,0,1.0040595,0,1 @ F,0,0,1,0,4.0047183,0,1 @ F,0,0,1,0,4.0047183,0,1 @ F,0,0,1,0,4.0047183,0,1 @ F,0,0,1,0,3.0040595,0,1 @ F,0,0,1,0,1.0040595,0,1 @ F,0,0,1,0,1.0040595,0,1 @ F,0,0,1,0,5.9643322,0,1"
       radius="0"
       unit="px"
       method="auto"
       mode="F"
       chamfer_steps="1"
       flexible="false"
       use_knot_distance="true"
       apply_no_radius="true"
       apply_with_radius="true"
       only_selected="false"
       hide_knots="false" />
  </defs>
  <g
     inkscape:label="Layer 1"
     inkscape:groupmode="layer"
     id="layer1">
    <path
       id="rect2"
       style="display:none;fill:#333333;stroke-width:1.58216"
       d="M 4,5.9643322 V 26.035668 A 5.9643322,5.9643322 45 0 0 9.9643322,32 H 22.988306 A 5.0116935,5.0116935 135 0 0 28,26.988306 V 21.006765 A 1.0040595,1.0040595 45 0 0 26.99594,20.002706 1.0000082,1.0000082 134.76741 0 0 26,21.006765 v 4.988517 A 4.0047183,4.0047183 135 0 1 21.995282,30 H 10.004718 A 4.0047183,4.0047183 45 0 1 6,25.995282 V 6.0047183 A 4.0047183,4.0047183 135 0 1 10.004718,2 H 22.995941 A 3.0040595,3.0040595 45 0 1 26,5.0040595 1.0000082,1.0000082 44.767409 0 0 27.004059,6 1.0000082,1.0000082 134.76741 0 0 28,4.9959405 5.5014853,5.5014853 39.95076 0 0 22.035668,0 H 9.9643322 A 5.9643322,5.9643322 135 0 0 4,5.9643322 Z"
       inkscape:original-d="M 4,0 V 32 H 28 V 20.002706 H 26 V 30 H 6 V 2 h 20 v 4 h 2 V 0 Z"
       inkscape:path-effect="#path-effect3"
       sodipodi:nodetypes="ccccccccccccc"
       transform="translate(-4)" />
    <text
       xml:space="preserve"
       style="font-style:normal;font-variant:normal;font-weight:bold;font-stretch:normal;font-size:12.0902px;font-family:Arial;-inkscape-font-specification:'Arial Bold';fill:#f9f9f9;stroke-width:1.00752"
       x="5.2156506"
       y="16.240795"
       id="text4"
       transform="scale(1.0067996,0.99324636)"><tspan
         sodipodi:role="line"
         id="tspan4"
         x="5.2156506"
         y="16.240795"
         style="stroke-width:1.00752">mp4</tspan></text>
    <path
       id="rect4"
       style="fill:#f9f9f9;fill-opacity:0;stroke:#ffffff;stroke-width:3;stroke-linecap:round;stroke-linejoin:miter;stroke-miterlimit:20;stroke-dasharray:none;stroke-dashoffset:0;stroke-opacity:1;paint-order:normal"
       d="m 22.5,21 v 4.559961 A 4.9400388,4.9400388 135 0 1 17.559961,30.5 H 6.4887378 A 4.9887378,4.9887378 45 0 1 1.5,25.511262 L 1.5,6.5028957 A 5.0028957,5.0028957 135 0 1 6.5028957,1.5 H 17.499179 A 5.0008214,5.0008214 45 0 1 22.5,6.5008214 V 7"
       sodipodi:nodetypes="cccccc"
       inkscape:path-effect="#path-effect4"
       inkscape:original-d="m 22.5,21 v 9.5 h -21 v -29 h 21 V 7" />
  </g>
</svg>
